PathFileType	4	(X/Y/Z)	E:\Qualisys_Data\Carbon_Farble_Plate\Data\Amateur_Runner\S14\T3\S14T3V11_c3d.trc
DataRate	CameraRate	NumFrames	NumMarkers	Units	OrigDataRate	OrigDataStartFrame	OrigNumFrames
200.000000	200.000000	4	39	mm	200.000000	195	313
Frame#	Time	LSHO			RSHO			LICST			RICST			LASIS			LHEEL			RASIS			LTROC			RTROC			SACR			LTH1			LSK4			LTH2			LTH3			RHM5			LSK2			LTH4			RTH1			LTOE			RTH2			RTH3			RTH4			LLEP			RLEP			LSK1			LSK3			RSK1			LHM5			RSK2			LFT1			RSK3			RSK4			LLME			RLME			RTOE			RHEEL			RFT1			RFT2			LFT2			
		X1	Y1	Z1	X2	Y2	Z2	X3	Y3	Z3	X4	Y4	Z4	X5	Y5	Z5	X6	Y6	Z6	X7	Y7	Z7	X8	Y8	Z8	X9	Y9	Z9	X10	Y10	Z10	X11	Y11	Z11	X12	Y12	Z12	X13	Y13	Z13	X14	Y14	Z14	X15	Y15	Z15	X16	Y16	Z16	X17	Y17	Z17	X18	Y18	Z18	X19	Y19	Z19	X20	Y20	Z20	X21	Y21	Z21	X22	Y22	Z22	X23	Y23	Z23	X24	Y24	Z24	X25	Y25	Z25	X26	Y26	Z26	X27	Y27	Z27	X28	Y28	Z28	X29	Y29	Z29	X30	Y30	Z30	X31	Y31	Z31	X32	Y32	Z32	X33	Y33	Z33	X34	Y34	Z34	X35	Y35	Z35	X36	Y36	Z36	X37	Y37	Z37	X38	Y38	Z38	X39	Y39	Z39	

196	0.975	737.7440795898438	1417.68603515625	-546.3526000976562	810.0758666992188	1400.345092773438	-250.7245788574219	703.141845703125	965.6375122070312	-529.7171630859375	751.7265014648438	971.697021484375	-254.3195495605469	750.7352294921875	917.2697143554688	-509.0726318359375	518.5691528320312	287.48193359375	-438.2422790527344	775.5269165039062	930.3842163085938	-274.953369140625	627.0314331054688	844.34521484375	-544.9202270507812	634.036865234375	855.0677490234375	-208.0791778564453	586.485595703125	968.329833984375	-383.8816528320312	803.238525390625	667.5917358398438	-569.020263671875	677.0612182617188	414.0744934082031	-521.4663696289062	742.156494140625	627.295654296875	-539.2743530273438	864.491455078125	589.100341796875	-555.4920043945312	518.0421752929688	55.52970886230469	-274.9975280761719	749.7697143554688	479.3673095703125	-542.7219848632812	799.29638671875	547.93798828125	-531.6754760742188	740.5616455078125	623.198974609375	-235.0808563232422	694.6778564453125	95.87587738037108	-483.6042175292969	664.1558837890625	634.6734008789062	-223.8169403076172	727.1732177734375	528.3981323242188	-269.8730773925781	645.7037353515625	537.6061401367188	-250.1827239990234	838.0744018554688	511.8599243164062	-554.6351928710938	658.3531494140625	464.7690734863281	-263.384521484375	805.837646484375	419.2262268066406	-546.2281494140625	731.2371826171875	352.3450927734375	-525.6890869140625	619.755126953125	345.297119140625	-267.4719543457031	631.20849609375	139.0380554199219	-537.68798828125	547.0186767578125	389.1388854980469	-258.0230102539062	510.8076782226562	256.7135620117188	-410.423583984375	558.0636596679688	262.8466491699219	-285.822998046875	495.7506713867188	309.2498474121094	-273.6272277832031	577.4943237304688	269.3620910644531	-499.1206970214844	420.72509765625	151.7516784667969	-303.3493957519531	585.4606323242188	49.25645446777344	-347.4622192382812	348.9542236328125	139.9131469726562	-358.0559692382812	351.6945190429688	110.4301986694336	-386.1632080078125	340.9689331054688	120.4009399414062	-334.1364440917969	499.0788269042969	266.4302673339844	-462.5501403808594
197	0.98	751.6538696289062	1421.614990234375	-546.6626586914062	827.4767456054688	1404.79443359375	-252.5833129882812	719.20068359375	970.0557250976562	-530.4363403320312	769.0564575195312	975.4642333984376	-254.7905120849609	766.8457641601562	921.958251953125	-508.814208984375	545.9378051757812	276.9971923828125	-438.0717468261719	792.0797729492188	933.4526977539062	-275.9383544921875	644.145751953125	849.515869140625	-546.1720581054688	650.4219970703125	858.8336791992188	-207.6882019042969	603.15869140625	972.4486694335938	-383.9060668945312	821.9058227539062	673.0360717773438	-568.0045166015625	701.18115234375	409.9678039550781	-520.6122436523438	760.4412231445312	632.1380615234375	-539.9833374023438	883.1489868164062	594.7232666015625	-553.9303588867188	519.8493041992188	56.01425933837891	-274.6321716308594	769.7413330078125	478.9971008300781	-542.1986083984375	817.7833862304688	552.8065185546875	-531.73779296875	752.418701171875	626.068115234375	-235.6656646728516	731.50390625	93.41778564453124	-483.8140563964844	676.6591186523438	638.972412109375	-224.1571502685547	737.3174438476562	531.73681640625	-269.9052429199219	656.0025634765625	542.066162109375	-250.0085296630859	857.3585815429688	515.63330078125	-553.0086059570312	667.0191650390625	469.110107421875	-262.4199523925781	828.46923828125	421.7517700195312	-545.62109375	756.669921875	351.0664978027344	-525.216064453125	626.48095703125	349.611572265625	-266.7297058105469	666.0995483398438	133.7323150634766	-537.9857788085938	554.189208984375	394.2128295898438	-257.5863647460938	540.6929321289062	244.5909729003906	-411.2408142089844	564.1152954101562	267.9239196777344	-284.5873718261719	502.3884582519531	314.7901306152344	-272.7533569335938	606.4834594726562	261.275146484375	-499.575927734375	426.1943664550781	157.5595703125	-302.3885498046875	587.3030395507812	48.48865127563477	-347.1514282226562	354.5283203125	147.3507843017578	-356.9359436035156	356.91455078125	117.8854370117188	-384.9415283203125	345.9043579101562	128.054443359375	-333.1490173339844	526.8260498046875	255.4015655517578	-463.8585510253906
198	0.985	765.8662109375	1425.73193359375	-547.2096557617188	844.8005981445312	1409.150268554688	-254.5184631347656	735.2576293945312	975.0478515625	-531.0402221679688	786.2725219726562	978.7159423828124	-255.4475555419922	783.1138916015625	926.6656494140624	-509.7955932617188	576.1876831054688	265.5429992675781	-438.1771545410156	808.8632202148438	936.7685546875	-276.7717895507812	661.1015014648438	854.2706909179688	-547.0899047851562	666.296875	863.025634765625	-208.0099639892578	620.082763671875	976.4476928710938	-384.0698852539062	840.005615234375	677.74560546875	-567.0946044921875	723.9334716796875	406.2123107910156	-520.5943603515625	778.3132934570312	636.8431396484375	-540.340087890625	901.521728515625	599.6893310546875	-552.2459106445312	521.7250366210938	56.52639389038086	-273.7483215332031	789.3441162109375	478.4483642578125	-541.2534790039062	835.57861328125	557.9732055664062	-531.8050537109375	764.8136596679688	628.8286743164062	-236.3141479492188	768.3739624023438	91.31439971923828	-484.1493530273438	689.2731323242188	642.8770141601562	-223.6751556396484	747.6978759765625	534.5274047851562	-269.8606567382812	667.0079345703125	546.2463989257812	-249.1897735595703	876.6497802734375	519.447998046875	-551.3140258789062	675.8894653320312	473.7249145507812	-261.5993957519531	850.5106811523438	423.2658081054688	-544.196044921875	782.475830078125	349.6947326660156	-524.98828125	633.9611206054688	354.74365234375	-265.5458984375	701.4011840820312	128.2217254638672	-538.3229370117188	561.9483642578125	399.8977661132812	-256.5261840820312	568.28955078125	233.9666595458984	-412.6504516601562	571.1625366210938	273.1541442871094	-283.3808898925781	509.4764709472656	320.7062072753906	-271.8519592285156	635.617431640625	253.0627288818359	-499.770751953125	432.1038513183594	163.1680603027344	-301.33203125	589.4112548828125	48.27408981323242	-345.9721984863281	360.6615295410156	155.362548828125	-355.8961486816406	362.4793395996094	126.1298065185547	-383.7248229980469	351.4562072753906	136.244140625	-332.1373901367188	557.11083984375	242.5526275634766	-464.1282348632812
199	0.99	780.082275390625	1429.625122070312	-547.7623901367188	862.4054565429688	1413.667846679688	-256.1734008789062	752.782470703125	979.5885620117188	-529.7743530273438	803.2438354492188	982.51025390625	-256.3131408691406	799.0465698242188	931.4924926757812	-510.1305236816406	604.1324462890625	253.6887359619141	-439.9889831542969	825.6353759765625	939.9222412109376	-277.6998901367188	678.1127319335938	859.5294189453125	-548.7650756835938	682.4342041015625	867.156494140625	-208.3041534423828	636.643798828125	980.638427734375	-384.2783813476562	858.38525390625	682.255126953125	-566.453125	746.4851684570312	402.4088745117188	-520.685546875	796.0990600585938	641.2498779296875	-540.9229125976562	919.0355834960938	604.1362915039062	-550.6566162109375	525.1024169921875	58.08597183227539	-271.9387512207031	808.6934814453125	476.9606628417969	-540.5498657226562	853.3651123046875	562.3136596679688	-532.1167602539062	777.0929565429688	631.7012939453125	-236.9867248535156	805.1918334960938	89.35440826416016	-483.9859313964844	701.9368286132812	646.6646728515625	-223.9316101074219	758.664306640625	537.9208984375	-268.9853515625	677.9638061523438	550.6483764648438	-248.6262969970703	895.375732421875	522.4483032226562	-549.5633544921875	685.5194702148438	477.2533569335938	-260.7939147949219	872.2445678710938	425.0885620117188	-543.164794921875	807.6598510742188	348.6326904296875	-524.5922241210938	641.589111328125	359.1900024414062	-264.1757507324219	736.90673828125	123.6023178100586	-538.7610473632812	569.9353637695312	405.2181701660156	-255.92529296875	598.4365234375	222.5082397460938	-413.7672119140625	578.1612548828125	278.4000549316406	-281.5633544921875	516.903076171875	326.1267395019531	-271.0965576171875	665.0435791015625	244.8288726806641	-500.3852233886719	438.8535461425781	168.8594207763672	-299.95849609375	591.3077392578125	47.15670776367188	-345.4296264648438	367.7255554199219	163.5476989746094	-354.7935791015625	368.8150939941406	134.4220886230469	-383.3319396972656	357.64306640625	144.3718719482422	-331.4440612792969	586.9730224609375	230.7364959716797	-465.36181640625
